# xmcd
#
# Track frame offsets:
#	150
#	14346
#	34839
#	49518
#	66862
#	89054
#
# Disc length: 1391 seconds
#
# Revision: 1
# Processed by: cddbd v1.5PL3 Copyright (c) Steve Scherf et al.
# Submitted via: EasyCDDAExtractor 5.0.7
#
DISCID=4a056d06
DTITLE=Various Artist - Live Selections
DYEAR=1900
DGENRE=
TTITLE0=Delbert Mcclinton - Old Weakness
TTITLE1=Delbert Mcclinton - I'm With You
TTITLE2=Don't Want To Love You Anymore 
TTITLE3=New York City
TTITLE4=I've Got Dreams To Remember
TTITLE5=Giving It Up For Your Love
EXTD=
EXTT0=
EXTT1=
EXTT2=
EXTT3=
EXTT4=
EXTT5=
PLAYORDER=
